<?xml version="1.0" encoding="utf-8"?>
<!-- Generator: Adobe Illustrator 25.0.1, SVG Export Plug-In . SVG Version: 6.00 Build 0)  -->
<svg version="1.1" id="Controller" xmlns="http://www.w3.org/2000/svg" xmlns:xlink="http://www.w3.org/1999/xlink" x="0px" y="0px"
	 viewBox="0 0 399.7 252.3" style="enable-background:new 0 0 399.7 252.3;" xml:space="preserve">
<style type="text/css">
	.st0{fill:none;stroke:#B3B3B3;stroke-width:2;stroke-miterlimit:10;}
	.st1{fill:none;stroke:#B3B3B3;stroke-width:2;stroke-miterlimit:22.9256;}
	.st2{fill:none;stroke:#000000;stroke-width:2;stroke-miterlimit:10;}
	.st3{fill:none;stroke:#000000;stroke-width:2;stroke-miterlimit:1.0925;}
	.st4{fill:none;stroke:#B3B3B3;stroke-miterlimit:10;}
</style>
<path class="st0" d="M90.5,192.2c-4.4,11.1-8.4,21.1-12,30.1c-3.4,9.6-7.4,18.2-11.9,25.9c-1.7,2.4-3.3,3.1-4.7,2.2
	c-5.2-1.1-11.7-2.2-19.4-3.4c-4.9,0.8-9.9-1.5-14.9-7C18,228.9,13,212.4,12.3,190.7c-0.8-31.8,4.4-68.2,15.4-109.1
	c5-18.2,12.8-37.8,23.4-58.8c0.5-1.1,1.4-1.9,2.7-2.2c19.5-5,37.7-8.3,54.6-10c1.8-0.2,3.4,0.1,4.7,0.9c5.7-1.4,11.7-2.3,18-2.7
	c44.6-5.2,90.7-5.2,138.1-0.1c5.9,0.5,11.8,1.4,17.8,2.7c1.3-0.5,2.9-0.8,4.6-0.9c8,0.7,17.9,2.1,29.7,4.4
	c10.6,2.3,19.1,4.4,25.7,6.2c0.9,0.2,1.6,1,2.1,2.2c14.6,28.4,25.7,62.5,33.3,102.5c4.3,24.8,5.9,45.2,4.8,61.1
	c-1.1,22.1-5.2,38.8-12.5,50.3c-4.5,5.3-8.7,8.5-12.7,9.9c-1.5,0.3-3.1,0.3-4.9-0.1c-6.8,1.3-13.2,2.5-19.1,3.4
	c-1.2,0.9-2.5,0.5-3.9-1c-3.5-4.8-6.6-10.7-9.6-17.9c-4.1-10.6-9.3-24.3-15.5-40.9c-3.5-8.5-7.1-14.7-10.6-18.5
	c-5-5.1-10.8-8.2-17.4-9.2c-2.3-0.3-4.7-0.4-7.2-0.5c-7.2,1.7-14.1,2.4-20.7,2.1c-38.2-0.2-73.3-0.3-105.2-0.2
	c-8.2,0.6-14.9,0.2-20-1.4c-3.8-0.7-8.1-0.4-12.7,0.7c-6.6,2.1-12.1,6-16.6,11.9C95.8,179.3,93,184.9,90.5,192.2L90.5,192.2z"/>
<path class="st0" d="M57.9,19.5c0.3-2,0.5-3.9,0.7-5.9c0.1-0.9,1.2-1.8,3-2.8c13.4-7.8,28-10.5,43.7-7.8c1.1,0.2,1.8,0.9,2,1.9
	c0.4,2.4,0.7,4.3,0.8,5.7"/>
<path class="st1" d="M110.5,24.3L110.5,24.3c2.3-0.4,4.6,1.2,5.1,3.6l1.7,7.8c0.5,2.4-0.9,4.7-3.2,5.1l0,0c-2.3,0.4-4.6-1.2-5.1-3.6
	l-1.7-7.8C106.8,27,108.2,24.7,110.5,24.3z"/>
<path class="st1" d="M289.4,24L289.4,24c-2.3-0.4-4.6,1.2-5.1,3.6l-1.7,7.8c-0.5,2.4,0.9,4.7,3.2,5.1l0,0c2.3,0.4,4.6-1.2,5.1-3.6
	l1.7-7.8C293.1,26.7,291.7,24.4,289.4,24z"/>
<path class="st0" d="M132.4,8.7c-6.6,0.9-8.8,5.7-6.8,14.6c2,10.1,4.6,22.8,8,38.2c2.7,16,9.9,24.2,21.8,24.6
	c18.5-0.1,34.6-0.1,48.2,0c13.6-0.1,22-0.1,40.5,0c11.8-0.4,19.1-8.6,21.8-24.6c3.4-15.4,6.1-28.1,8-38.2c2.1-8.9-0.3-13.9-6.8-14.7
	"/>
<circle class="st0" cx="316.8" cy="101.5" r="12.4"/>
<circle class="st0" cx="316.8" cy="46.3" r="12.4"/>
<circle class="st0" cx="289.2" cy="73.6" r="12.4"/>
<circle class="st0" cx="344.5" cy="73.6" r="12.4"/>
<circle class="st2" cx="260.1" cy="124.6" r="24.7"/>
<circle class="st3" cx="139" cy="124.6" r="24.7"/>
<path class="st0" d="M192.5,142.9H207c1.2,0,2.1,0.9,2.1,2.1l0,0c0,1.2-0.9,2.1-2.1,2.1h-14.5c-1.2,0-2.1-0.9-2.1-2.1l0,0
	C190.5,143.8,191.4,142.9,192.5,142.9z"/>
<circle class="st4" cx="186.3" cy="97.1" r="2.3"/>
<circle class="st4" cx="193" cy="97.1" r="2.3"/>
<circle class="st4" cx="200.1" cy="97.1" r="2.3"/>
<circle class="st4" cx="206.7" cy="97.1" r="2.3"/>
<circle class="st4" cx="213.5" cy="97.1" r="2.3"/>
<circle class="st4" cx="189.7" cy="103.4" r="2.3"/>
<circle class="st4" cx="196.7" cy="103.4" r="2.3"/>
<circle class="st4" cx="203.3" cy="103.4" r="2.3"/>
<circle class="st4" cx="210.2" cy="103.4" r="2.3"/>
<path class="st0" d="M83.2,104.9c-3.5-0.1-6.7-0.7-8.7-2c-3.3-2.2-1.8-8.7-1.4-14.5c0.4-2.7,5.2-7.1,7-9.1c0.8-0.8,1.7-1.1,2.8-1.2
	c1,0.1,2.3,0.4,3.1,1.2c1.7,2,6.5,6.4,7,9.1c0.4,5.7,1.9,12.2-1.4,14.5C89.5,104.2,86.7,104.9,83.2,104.9z"/>
<path class="st0" d="M114.4,73c0,3.5-0.7,6.7-1.9,8.7c-2.2,3.3-8.7,1.9-14.5,1.5c-2.7-0.4-7.1-5.2-9.1-6.9c-0.8-0.8-1.1-1.7-1.2-2.8
	c0.1-1,0.4-2.3,1.1-3.1c2-1.7,6.3-6.6,9.1-7c5.7-0.5,12.2-2,14.5,1.3C113.6,66.7,114.3,69.6,114.4,73z"/>
<path class="st0" d="M51.5,73.5c0,3.5,0.7,6.7,1.9,8.7c2.2,3.3,8.7,1.9,14.5,1.5c2.7-0.4,7.1-5.2,9.1-6.9c0.8-0.8,1.1-1.7,1.2-2.8
	c-0.1-1-0.4-2.3-1.1-3.1c-2-1.7-6.3-6.6-9.1-7c-5.7-0.5-12.2-2-14.5,1.3C52.2,67.1,51.6,70,51.5,73.5z"/>
<path class="st0" d="M83.1,42.2c-3.5,0.1-6.7,0.7-8.7,2c-3.3,2.2-1.8,8.7-1.4,14.5c0.4,2.7,5.2,7.1,7,9.1c0.8,0.8,1.7,1.1,2.8,1.2
	c1-0.1,2.3-0.4,3.1-1.2c1.7-2,6.5-6.4,7-9.1c0.4-5.7,1.9-12.2-1.4-14.5C89.5,42.9,86.6,42.3,83.1,42.2L83.1,42.2z"/>
<path class="st0" d="M42.4,247c4.4-1.5,8.4-9,11.8-22.5c4.9-17.1,12-35.7,21.3-56c10.6-23.2,21.9-43.5,33.7-60.9
	c4-5.2,9.7-12.2,17.2-21c4.3-5.4,5.6-12.8,3.9-22.3c-2.3-11.3-5-24.5-7.9-39.6c-1.5-6.6-4.7-11-9.4-13.1"/>
<path class="st0" d="M61.8,250.4c2.4-1.7,3.6-6.9,6.6-14.8c10.1-29.3,21.1-57.3,33.3-67.6c6.7-5.3,15.7-6.6,23.5-5.4"/>
<path class="st4" d="M191.9,126.5c1.1-0.4,2.5-0.7,4.2-1.3c0-0.7,0-1.2,0-2.1c-1.5,0.5-4.1,1.2-6.7,2.4c-1.6,0.9-1.6,1.7,0,2.6
	c2.5,1.2,5.1,1.1,6.7,0.6c0-0.6,0-1.3,0-2c-1.1,0.5-2.5,0.7-3.9,0.6C191.5,127.2,191.2,126.8,191.9,126.5z"/>
<path class="st4" d="M207.9,126.3c-2.2,0.8-4.2,1.5-6.3,2c0,0.8,0,1.6,0,2.3c2.4-0.8,5.7-1.9,8.7-3.2c2-0.9,2.1-1.9,0.2-2.8
	c-2.9-1-6-1.1-8.8,0c0,0.7,0,1.6,0,2.3c1.2-0.4,2.7-0.9,4.2-1.3C207.2,125.2,209.5,125.8,207.9,126.3L207.9,126.3z"/>
<path class="st4" d="M196.9,129.9c1,0.3,2.4,0.7,3.8,1.1c0-5.6,0-10.3,0-14c0-0.6,0.3-0.9,0.6-0.9c0.5,0.1,0.8,0.4,0.8,1.1
	c0,2.1,0,3.8,0,5.2c0.2,0.8,1.4,1.4,2.8,0.6c1.5-1.1,1.8-4.1,0.9-6.1c-0.6-1.1-1.4-1.8-2.9-2.4c-1.6-0.6-3.5-1.2-5.8-1.8
	C196.9,119.5,197,125.5,196.9,129.9z"/>
<path class="st0" d="M357.1,247c-4.4-1.5-8.4-9-11.8-22.5c-4.9-17.1-12-35.7-21.3-56c-10.6-23.2-21.9-43.5-33.7-60.9
	c-4-5.2-9.7-12.2-17.2-21c-4.3-5.4-5.6-12.8-3.9-22.3c2.3-11.3,5-24.5,7.9-39.6c1.5-6.6,5-11.2,9.9-13.2"/>
<path class="st0" d="M337.7,250.4c-2.4-1.7-4.1-7-7-14.9c-10.1-29.3-20.8-57.4-32.9-67.7c-6.7-5.3-16.1-6.8-24-5.3"/>
<path class="st0" d="M341.2,19.5c-0.3-2-0.5-3.9-0.7-5.9c-0.1-0.9-1.2-1.8-3-2.8C324,3,309.5,0.4,293.8,3.1c-1.1,0.2-1.8,0.9-2,1.9
	c-0.4,2.4-0.7,4.3-0.8,5.7"/>
<polygon class="st0" points="316.8,38.5 320.3,44.6 323.7,50.7 316.8,50.7 310,50.7 313.4,44.6 "/>
<rect x="283.7" y="67.8" class="st0" width="11.6" height="11.6"/>
<circle class="st0" cx="344.7" cy="73.5" r="7.5"/>
<g>
	<g>
		<g>
			<line class="st0" x1="311.8" y1="96.8" x2="322.4" y2="107.4"/>
		</g>
	</g>
</g>
<g>
	<g>
		<g>
			<line class="st0" x1="322.1" y1="96.8" x2="311.5" y2="107.4"/>
		</g>
	</g>
</g>
</svg>
