<?xml version="1.0" encoding="utf-8"?>
<!-- Generator: Adobe Illustrator 25.0.1, SVG Export Plug-In . SVG Version: 6.00 Build 0)  -->
<svg version="1.1" id="Layer_1" xmlns="http://www.w3.org/2000/svg" xmlns:xlink="http://www.w3.org/1999/xlink" x="0px" y="0px"
	 viewBox="0 0 806 598.9" style="enable-background:new 0 0 806 598.9;" xml:space="preserve">
<style type="text/css">
	.st0{fill:none;}
	.st1{fill:#0D0E13;}
	.st2{opacity:6.000000e-02;fill:#FFFFFF;enable-background:new    ;}
	.st3{fill:#13161F;}
	.st4{fill:#0F1015;}
	.st5{fill:#080808;}
	.st6{fill:#1F1F1F;}
	.st7{opacity:0.1;fill:#E6E6E6;enable-background:new    ;}
	.st8{opacity:8.000000e-02;fill:url(#SVGID_3_);enable-background:new    ;}
	.st9{opacity:0.22;enable-background:new    ;}
	.st10{opacity:8.000000e-02;fill:url(#SVGID_4_);enable-background:new    ;}
	.st11{opacity:0.12;fill:#FFFFFF;enable-background:new    ;}
	.st12{fill:#0B0B0F;}
	.st13{opacity:8.000000e-02;fill:#FFFFFF;enable-background:new    ;}
	.st14{fill:#CCCCCC;}
</style>
<pattern  y="598.9" width="40" height="103" patternUnits="userSpaceOnUse" id="SVGID_1_" viewBox="0 -231.8 40 103" style="overflow:visible;">
	<g>
		<rect y="-231.8" class="st0" width="40" height="103"/>
		<g>
			<rect y="-231.8" class="st0" width="40" height="103"/>
			<g>
				<rect y="-231.8" class="st0" width="40" height="103"/>
				<g>
					<rect y="-231.8" class="st0" width="40" height="103"/>
					<path class="st0" d="M0-128.8h40v-103H0V-128.8z"/>
					<path class="st0" d="M0-231.8h40v103H0V-231.8z"/>
					<path class="st0" d="M0-231.8h40v103H0V-231.8z"/>
					<path d="M34.5,0h3v-154.5h-3V0z M26.5,0h3v-154.5h-3V0z M18.5,0h3v-154.5h-3V0z M10.5,0h3v-154.5h-3V0z M2.5,0h3v-154.5h-3V0z"
						/>
					<path d="M34.5-103h3v-154.5h-3V-103z M26.5-103h3v-154.5h-3V-103z M18.5-103h3v-154.5h-3V-103z M10.5-103h3v-154.5h-3V-103z
						 M2.5-103h3v-154.5h-3V-103z"/>
					<path d="M34.5-206h3v-154.5h-3V-206z M26.5-206h3v-154.5h-3V-206z M18.5-206h3v-154.5h-3V-206z M10.5-206h3v-154.5h-3V-206z
						 M2.5-206h3v-154.5h-3V-206z"/>
				</g>
			</g>
		</g>
	</g>
</pattern>
<pattern  y="598.9" width="40" height="103" patternUnits="userSpaceOnUse" id="SVGID_2_" viewBox="0 -231.8 40 103" style="overflow:visible;">
	<g>
		<rect y="-231.8" class="st0" width="40" height="103"/>
		<g>
			<rect y="-231.8" class="st0" width="40" height="103"/>
			<g>
				<rect y="-231.8" class="st0" width="40" height="103"/>
				<g>
					<rect y="-231.8" class="st0" width="40" height="103"/>
					<path class="st0" d="M0-128.8h40v-103H0V-128.8z"/>
					<path class="st0" d="M0-231.8h40v103H0V-231.8z"/>
					<path class="st0" d="M0-231.8h40v103H0V-231.8z"/>
					<path d="M34.5,0h3v-154.5h-3V0z M26.5,0h3v-154.5h-3V0z M18.5,0h3v-154.5h-3V0z M10.5,0h3v-154.5h-3V0z M2.5,0h3v-154.5h-3V0z"
						/>
					<path d="M34.5-103h3v-154.5h-3V-103z M26.5-103h3v-154.5h-3V-103z M18.5-103h3v-154.5h-3V-103z M10.5-103h3v-154.5h-3V-103z
						 M2.5-103h3v-154.5h-3V-103z"/>
					<path d="M34.5-206h3v-154.5h-3V-206z M26.5-206h3v-154.5h-3V-206z M18.5-206h3v-154.5h-3V-206z M10.5-206h3v-154.5h-3V-206z
						 M2.5-206h3v-154.5h-3V-206z"/>
				</g>
			</g>
		</g>
	</g>
</pattern>
<path class="st1" d="M801.2,418.6c-2.9-15.5-17.7-102.5-32-144.6c-9.4-27.7-13.1-53-17-64.9c-12-35.7-33-65.7-33-65.7
	s-9.5-13.1-10.1-16.3c-0.6-3.3-4.7-8.6-4.7-8.6s-17.4-5.7-62.3-5.7s-53.7,5-53.7,5s-2.4,2.9-5.9,4.8c-3.5,1.8-11.7,1.7-11.7,1.7
	h-33.4c0,0-0.6-0.1-0.9,0.3c-0.4,0.4-0.6,2-0.6,2h-266c0,0-0.3-1.7-0.6-2c-0.4-0.4-0.9-0.3-0.9-0.3H235c0,0-8.2,0.2-11.7-1.7
	c-3.5-1.8-5.9-4.8-5.9-4.8s-8.8-5-53.7-5c-44.8,0-62.3,5.7-62.3,5.7s-4.1,5.3-4.7,8.6c-0.6,3.3-10.1,16.3-10.1,16.3s-21,30-33,65.7
	c-4,11.9-7.7,37.2-17,64.9c-14.3,42.1-29.1,129.1-32,144.6C0.3,441.8,0,508.8,0,508.8s4.5,53.4,36.2,74.9s56.7,14,56.7,14
	s33.1-8.2,57.8-41.9s56.6-129.2,56.6-129.2s2.2-3,5.7-5.3s6.3-2.6,6.3-2.6l183.7,0.1l183.7-0.1c0,0,2.8,0.3,6.3,2.6
	c3.5,2.3,5.7,5.3,5.7,5.3s31.9,95.4,56.6,129.2c24.7,33.8,57.8,41.9,57.8,41.9s25,7.5,56.7-14s36.2-74.9,36.2-74.9
	S805.6,441.8,801.2,418.6L801.2,418.6z"/>
<path class="st2" d="M36.5,276c9.4-27.7,13.1-53,17-64.9c12-35.7,33-65.7,33-65.7s9.5-13.1,10.1-16.3c0.6-3.3,4.7-8.6,4.7-8.6
	s17.4-5.7,62.3-5.7c44.8,0,53.7,5,53.7,5s2.4,2.9,5.9,4.8c3.5,1.8,11.7,1.7,11.7,1.7h33.4c0,0,0.6-0.1,0.9,0.3c0.4,0.4,0.6,2,0.6,2
	H536c0,0,0.3-1.7,0.6-2c0.4-0.4,0.9-0.3,0.9-0.3h33.4c0,0,8.2,0.2,11.7-1.7c3.5-1.8,5.9-4.8,5.9-4.8s8.8-5,53.7-5s62.3,5.7,62.3,5.7
	s4.1,5.3,4.7,8.6c0.6,3.3,10.1,16.3,10.1,16.3s21,30,33,65.7c4,11.9,7.7,37.2,17,64.9c14.3,42.1,29.1,129.1,32,144.6
	c3.9,20.9,4.6,77.3,4.7,88.3v-0.1c0,0-0.3-66.9-4.7-90.1c-2.9-15.5-17.7-102.5-32-144.6c-9.4-27.7-13.1-53-17-64.9
	c-12-35.7-33-65.7-33-65.7s-9.5-13.1-10.1-16.3c-0.6-3.3-4.7-8.6-4.7-8.6s-17.4-5.7-62.3-5.7c-44.9,0-53.7,5-53.7,5
	s-2.4,2.9-5.9,4.8c-3.5,1.8-11.7,1.7-11.7,1.7h-33.4c0,0-0.6-0.1-0.9,0.3c-0.4,0.4-0.6,2-0.6,2H269.8c0,0-0.3-1.7-0.6-2
	c-0.4-0.4-0.9-0.3-0.9-0.3h-33.4c0,0-8.2,0.2-11.7-1.7c-3.5-1.8-5.9-4.8-5.9-4.8s-8.8-5-53.7-5c-44.8,0-62.3,5.7-62.3,5.7
	s-4.1,5.3-4.7,8.6c-0.6,3.3-10.1,16.3-10.1,16.3s-21,30-33,65.7c-4,11.9-7.7,37.2-17,64.9c-14.3,42.1-29.1,129.1-32,144.6
	C0.3,441.8,0,508.8,0,508.8v0.1c0.1-10.9,0.7-67.4,4.7-88.3C7.6,405.2,22.3,318.1,36.5,276L36.5,276z"/>
<path class="st3" d="M351.1,360c0-42.2-34.3-76.5-76.5-76.5s-76.5,34.3-76.5,76.5c0,0.7,0,1.3,0.1,2c0,0.7-0.1,1.3-0.1,2
	c0,42.2,34.3,76.5,76.5,76.5s76.5-34.3,76.5-76.5c0-0.7,0-1.3-0.1-2C351,361.3,351.1,360.6,351.1,360z"/>
<circle class="st4" cx="274.6" cy="356" r="73"/>
<circle cx="274.6" cy="356" r="51.5"/>
<path class="st3" d="M607.8,360c0-42.2-34.3-76.5-76.5-76.5s-76.5,34.3-76.5,76.5c0,0.7,0,1.3,0.1,2c0,0.7-0.1,1.3-0.1,2
	c0,42.2,34.3,76.5,76.5,76.5s76.5-34.3,76.5-76.5c0-0.7,0-1.3-0.1-2C607.8,361.3,607.8,360.6,607.8,360z"/>
<circle class="st4" cx="531.2" cy="356" r="73"/>
<circle cx="531.2" cy="356" r="51.5"/>
<circle class="st5" cx="652.2" cy="244.8" r="94.3"/>
<circle class="st5" cx="153.6" cy="244.8" r="94.3"/>
<path class="st6" d="M230.4,254.1l9.5-8.9c0.5-0.5,0.5-1.2,0-1.7l-9.5-8.9c-0.7-0.7-1.9-0.2-1.9,0.8v17.8
	C228.4,254.2,229.6,254.7,230.4,254.1z M144.9,169.8h17.8c1,0,1.5-1.2,0.8-1.9l-8.9-9.5c-0.5-0.5-1.2-0.5-1.7,0l-8.9,9.5
	C143.5,168.6,144,169.8,144.9,169.8L144.9,169.8z M77.4,234.6l-9.5,8.9c-0.5,0.5-0.5,1.2,0,1.7l9.5,8.9c0.7,0.7,1.9,0.2,1.9-0.8
	v-17.8C79.3,234.4,78.2,233.9,77.4,234.6z M162.8,318.8H145c-1,0-1.5,1.2-0.8,1.9l8.9,9.5c0.5,0.5,1.2,0.5,1.7,0l8.9-9.5
	C164.2,320,163.7,318.8,162.8,318.8L162.8,318.8z"/>
<path class="st7" d="M105.2,544.5c-40.5-2.8-75.8-20.3-87.3-30.5C6.3,503.7,0.3,482.4,0.3,482.4c-0.4,15-0.4,26.3-0.4,26.3
	s4.5,53.4,36.2,74.9s56.7,14,56.7,14s33.1-8.2,57.8-41.9c4.5-6.2,9.3-14.5,14.1-23.8C164.6,531.9,145.6,547.2,105.2,544.5
	L105.2,544.5z"/>
<pattern  id="SVGID_3_" xlink:href="#SVGID_1_" patternTransform="matrix(0.3298 9.459995e-02 -9.459995e-02 0.3298 -37040.4414 13688.1445)">
</pattern>
<path class="st8" d="M105.2,544.5c-40.5-2.8-75.8-20.3-87.3-30.5C6.3,503.7,0.3,482.4,0.3,482.4c-0.4,15-0.4,26.3-0.4,26.3
	s4.5,53.4,36.2,74.9s56.7,14,56.7,14s33.1-8.2,57.8-41.9c4.5-6.2,9.3-14.5,14.1-23.8C164.6,531.9,145.6,547.2,105.2,544.5
	L105.2,544.5z"/>
<path class="st9" d="M89.9,592.5c-12.5,1.8-31.3-2-45.1-7.7c-13.6-5.7-24-16.4-24-16.4c4.2,5.8,9.3,11.1,15.3,15.2
	c31.7,21.5,56.7,14,56.7,14s11.7-2.9,26.3-12.3C119.1,585.3,104.5,590.5,89.9,592.5z"/>
<path class="st7" d="M700.8,544.5c40.5-2.8,75.8-20.3,87.3-30.5s17.5-31.5,17.5-31.5c0.4,15,0.4,26.3,0.4,26.3s-4.5,53.4-36.2,74.9
	s-56.7,14-56.7,14s-33.1-8.2-57.8-41.9c-4.5-6.2-9.3-14.5-14.1-23.8C641.2,531.9,660.4,547.2,700.8,544.5z"/>
<pattern  id="SVGID_4_" xlink:href="#SVGID_2_" patternTransform="matrix(-0.3298 9.460000e-02 9.460000e-02 0.3298 -72126.0938 13708.7217)">
</pattern>
<path class="st10" d="M700.8,544.5c40.5-2.8,75.8-20.3,87.3-30.5s17.5-31.5,17.5-31.5c0.4,15,0.4,26.3,0.4,26.3s-4.5,53.4-36.2,74.9
	s-56.7,14-56.7,14s-33.1-8.2-57.8-41.9c-4.5-6.2-9.3-14.5-14.1-23.8C641.2,531.9,660.4,547.2,700.8,544.5z"/>
<path class="st9" d="M716,592.5c12.5,1.8,31.3-2,45.1-7.7c13.6-5.7,24-16.4,24-16.4c-4.2,5.8-9.3,11.1-15.3,15.2
	c-31.7,21.5-56.7,14-56.7,14s-11.7-2.9-26.3-12.3C686.8,585.3,701.4,590.5,716,592.5z"/>
<circle cx="403" cy="316.4" r="4.1"/>
<circle cx="403" cy="295.5" r="4.1"/>
<circle cx="396" cy="305.7" r="4.1"/>
<circle cx="381.4" cy="305.7" r="4.1"/>
<circle cx="388.6" cy="316.4" r="4.1"/>
<circle cx="388.6" cy="295.5" r="4.1"/>
<circle cx="374.4" cy="295.5" r="4.1"/>
<circle cx="409.9" cy="305.7" r="4.1"/>
<circle cx="424.5" cy="305.7" r="4.1"/>
<circle cx="417.1" cy="316.4" r="4.1"/>
<circle cx="417.1" cy="295.5" r="4.1"/>
<circle cx="431.5" cy="295.5" r="4.1"/>
<path class="st11" d="M403,319.5c-2.1,0-3.8-1.6-4.1-3.6c0,0.2-0.1,0.3-0.1,0.5c0,2.3,1.8,4.1,4.1,4.1c2.3,0,4.1-1.8,4.1-4.1
	c0-0.2,0-0.3-0.1-0.5C406.8,317.9,405.1,319.5,403,319.5z M403,299.6c2.3,0,4.1-1.8,4.1-4.1c0-0.2,0-0.3-0.1-0.5
	c-0.2,2-2,3.6-4.1,3.6s-3.8-1.6-4.1-3.6c0,0.2-0.1,0.3-0.1,0.5C398.9,297.7,400.6,299.6,403,299.6L403,299.6z M400.2,305.7
	c0-0.2,0-0.3-0.1-0.5c-0.2,2-2,3.6-4.1,3.6s-3.8-1.6-4.1-3.6c0,0.2-0.1,0.3-0.1,0.5c0,2.3,1.8,4.1,4.1,4.1
	C398.2,309.8,400.1,308,400.2,305.7L400.2,305.7z M385.4,305.2c-0.2,2-2,3.6-4.1,3.6s-3.8-1.6-4.1-3.6c0,0.2-0.1,0.3-0.1,0.5
	c0,2.3,1.8,4.1,4.1,4.1s4.1-1.8,4.1-4.1C385.5,305.5,385.5,305.4,385.4,305.2z M388.8,319.5c-2.1,0-3.8-1.6-4.1-3.6
	c0,0.2-0.1,0.3-0.1,0.5c0,2.3,1.8,4.1,4.1,4.1s4.1-1.8,4.1-4.1c0-0.2,0-0.3-0.1-0.5C392.5,317.9,390.9,319.5,388.8,319.5z
	 M388.8,299.6c2.3,0,4.1-1.8,4.1-4.1c0-0.2,0-0.3-0.1-0.5c-0.2,2-2,3.6-4.1,3.6s-3.8-1.6-4.1-3.6c0,0.2-0.1,0.3-0.1,0.5
	C384.5,297.7,386.4,299.6,388.8,299.6L388.8,299.6z M378.5,295.5c0-0.2,0-0.3-0.1-0.5c-0.2,2-2,3.6-4.1,3.6s-3.8-1.6-4.1-3.6
	c0,0.2-0.1,0.3-0.1,0.5c0,2.3,1.8,4.1,4.1,4.1C376.6,299.6,378.5,297.7,378.5,295.5L378.5,295.5z M413.9,305.2c-0.2,2-2,3.6-4.1,3.6
	s-3.8-1.6-4.1-3.6c0,0.2-0.1,0.3-0.1,0.5c0,2.3,1.8,4.1,4.1,4.1s4.1-1.8,4.1-4.1C414,305.5,413.9,305.4,413.9,305.2z M424.5,308.8
	c-2.1,0-3.8-1.6-4.1-3.6c0,0.2-0.1,0.3-0.1,0.5c0,2.3,1.8,4.1,4.1,4.1s4.1-1.8,4.1-4.1c0-0.2,0-0.3-0.1-0.5
	C428.4,307.3,426.6,308.8,424.5,308.8z M417.2,319.5c-2.1,0-3.8-1.6-4.1-3.6c0,0.2-0.1,0.3-0.1,0.5c0,2.3,1.8,4.1,4.1,4.1
	s4.1-1.8,4.1-4.1c0-0.2,0-0.3-0.1-0.5C421,317.9,419.4,319.5,417.2,319.5z M417.2,299.6c2.3,0,4.1-1.8,4.1-4.1c0-0.2,0-0.3-0.1-0.5
	c-0.2,2-2,3.6-4.1,3.6s-3.8-1.6-4.1-3.6c0,0.2-0.1,0.3-0.1,0.5C413,297.7,414.9,299.6,417.2,299.6L417.2,299.6z M431.5,298.6
	c-2.1,0-3.8-1.6-4.1-3.6c0,0.2-0.1,0.3-0.1,0.5c0,2.3,1.8,4.1,4.1,4.1s4.1-1.8,4.1-4.1c0-0.2,0-0.3-0.1-0.5
	C435.4,297,433.6,298.6,431.5,298.6z"/>
<path class="st12" d="M436.5,421h-67.9c-2.8,0-4.6,0.6-4.6-2.2c0-2.8,2.3-5,5-5h67.9c2.8,0,5,2.3,5,5C442,421.5,439.4,421,436.5,421
	z"/>
<path d="M408.2,418.8h-36.5c-0.5,0-0.9-0.4-0.9-0.9c0-1.1,0.9-2,2-2H407c1.1,0,2,0.9,2,2C409.2,418.4,408.8,418.8,408.2,418.8
	L408.2,418.8z M430.5,419.6h-4.2c-0.9,0-1.7-0.8-1.7-1.7c0-1.6,1.3-2.8,2.8-2.8h1.9c1.6,0,2.8,1.3,2.8,2.8
	C432.1,418.9,431.4,419.6,430.5,419.6L430.5,419.6z"/>
<path class="st13" d="M648.7,65.7c-2.1,1.7-3.2,2.6-3.2,2.6c-1.2,1.2-1.9,2.7-2,4.5h9.8v-2.6H647c0.3-0.5,1-1.2,2.1-1.9
	c1.4-0.9,2.3-1.6,2.7-2.1c0.9-1,1.3-2.1,1.3-3.3c0-1.4-0.5-2.5-1.4-3.3s-2.1-1.2-3.5-1.2c-3.1,0-4.7,1.7-4.7,5h2.7
	c0-1.8,0.7-2.7,2.1-2.7c1.3,0,2,0.7,2,2.1C650.4,63.9,649.9,64.8,648.7,65.7L648.7,65.7z M631.1,67.2h3c1.5,0,2.3,0.6,2.4,1.9
	c0.1,1.2,0.2,2.5,0.3,3.8h3.3v-0.4c-0.5-0.2-0.7-0.7-0.7-1.5c0-0.2,0-0.4,0.1-0.8v-0.7c0-1.7-0.6-2.9-1.8-3.5
	c1.4-0.5,2.2-1.6,2.2-3.4c0-1.3-0.4-2.3-1.3-3c-0.8-0.7-1.9-1-3.2-1h-7.3v14.3h3V67.2z M631.1,61h3.7c1.4,0,2.1,0.6,2.1,1.9
	s-0.8,1.9-2.3,1.9h-3.5V61z"/>
<path class="st14" d="M547.5,134.6c0,2.1-1.5,3.8-4.1,3.8s-4.1-1.7-4.1-3.8c0-2,1.5-3.8,4.1-3.8S547.5,132.5,547.5,134.6z
	 M540.9,134.6c0,1.4,0.8,2.7,2.6,2.7s2.6-1.4,2.6-2.7c0-1.4-0.8-2.7-2.6-2.7S540.9,133.2,540.9,134.6z M548.9,131h3.8
	c2.4,0,2.9,1.3,2.9,2.2s-0.5,2.2-2.9,2.2h-2.3v2.8h-1.5V131z M550.4,134.4h2.2c0.7,0,1.5-0.3,1.5-1.2s-0.7-1.2-1.5-1.2h-2.2V134.4z
	 M556,131h6.9v1.1h-2.7v6.1h-1.5V132H556V131L556,131z M564,131h1.5v7.2H564V131z M575,134.6c0,2.1-1.5,3.8-4.1,3.8
	s-4.1-1.7-4.1-3.8c0-2,1.5-3.8,4.1-3.8S575,132.5,575,134.6z M568.4,134.6c0,1.4,0.8,2.7,2.6,2.7s2.6-1.4,2.6-2.7
	c0-1.4-0.8-2.7-2.6-2.7S568.4,133.2,568.4,134.6z M576.5,131h1.6l3.9,5.3V131h1.4v7.2h-1.6l-3.9-5.3v5.3h-1.4V131z M586.2,135.8
	c0,1.1,1,1.5,2.2,1.5c1.3,0,1.8-0.6,1.8-1.1c0-0.6-0.4-0.8-0.7-0.9c-0.6-0.2-1.4-0.3-2.6-0.6c-1.5-0.3-1.9-1.1-1.9-1.8
	c0-1.5,1.6-2.1,3.1-2.1c1.8,0,3.3,0.8,3.3,2.3h-1.5c-0.1-0.9-0.8-1.3-1.8-1.3c-0.7,0-1.6,0.2-1.6,0.9c0,0.5,0.4,0.8,1,0.9
	c0.1,0,2,0.4,2.5,0.6c1.1,0.3,1.7,1.1,1.7,1.8c0,1.6-1.7,2.3-3.4,2.3c-2,0-3.5-0.8-3.6-2.6h1.5V135.8L586.2,135.8z M222.2,135.8
	c0,1.1,1,1.5,2.2,1.5c1.3,0,1.8-0.6,1.8-1.1c0-0.6-0.4-0.8-0.7-0.9c-0.6-0.2-1.4-0.3-2.6-0.6c-1.5-0.3-1.9-1.1-1.9-1.8
	c0-1.5,1.6-2.1,3.1-2.1c1.8,0,3.3,0.8,3.3,2.3h-1.5c-0.1-0.9-0.8-1.3-1.8-1.3c-0.7,0-1.6,0.2-1.6,0.9c0,0.5,0.4,0.8,1,0.9
	c0.1,0,2,0.4,2.5,0.6c1.1,0.3,1.7,1.1,1.7,1.8c0,1.6-1.7,2.3-3.4,2.3c-2,0-3.5-0.8-3.6-2.6h1.5V135.8L222.2,135.8z M228.9,131h1.5
	v2.9h3.9V131h1.5v7.2h-1.5V135h-3.9v3.2h-1.5V131z M239.9,131h1.6l3.3,7.2h-1.6l-0.8-1.9H239l-0.8,1.9h-1.5L239.9,131z M239.4,135.3
	h2.6l-1.3-3.1L239.4,135.3z M245.6,131h4.1c1.9,0,2.8,0.7,2.8,1.9c0,1.4-1.1,1.7-1.4,1.8c0.5,0.1,1.3,0.4,1.3,1.5
	c0,0.8,0.1,1.6,0.5,1.9h-1.6c-0.2-0.3-0.2-0.7-0.2-1.1c0-1.3-0.3-1.9-1.7-1.9h-2.2v3h-1.5V131H245.6L245.6,131z M247.1,134.2h2.5
	c1,0,1.5-0.4,1.5-1.1c0-0.9-0.7-1.1-1.5-1.1h-2.4v2.2L247.1,134.2L247.1,134.2z M254.1,131h6.2v1.1h-4.7v1.9h4.3v1h-4.3v2.1h4.7v1.1
	h-6.2L254.1,131L254.1,131z"/>
</svg>
