<?xml version="1.0" encoding="utf-8"?>
<!-- Generator: Adobe Illustrator 25.0.1, SVG Export Plug-In . SVG Version: 6.00 Build 0)  -->
<svg version="1.1" id="Layer_1" xmlns="http://www.w3.org/2000/svg" xmlns:xlink="http://www.w3.org/1999/xlink" x="0px" y="0px"
	 viewBox="0 0 199.9 181.6" style="enable-background:new 0 0 199.9 181.6;" xml:space="preserve">
<style type="text/css">
	.st0{fill:#EDEDED;}
	.st1{fill:#F5F5F5;}
	.st2{opacity:8.000000e-02;enable-background:new    ;}
	.st3{fill:#121212;}
	.st4{fill:#0A0A0A;}
	.st5{opacity:8.000000e-02;fill:#FFFFFF;enable-background:new    ;}
</style>
<g>
	<path class="st0" d="M199.9,181.6c0,0-32.7-3.2-50.6-3.2s-48.4,2.4-48.4,2.4s3.1-44.7,4.8-52c1.7-7.3,7.7-21.3,16.9-27.9
		s12-10.1,22.8-10.1s25.4,6.4,34.6,21.4S199.9,181.6,199.9,181.6L199.9,181.6z"/>
	<path class="st1" d="M101.5,174c0,0,26.1-4.4,49-4.4c22.8,0,47.9,4.4,47.9,4.4c1,4.7,1.6,7.6,1.6,7.6s-32.7-3.2-50.6-3.2
		s-48.4,2.4-48.4,2.4S101.2,178.1,101.5,174z"/>
	<path class="st2" d="M151.4,156.5c-1.1,0.9-2.1,1.7-3.2,2.6c-1.2,1.2-1.9,2.7-2,4.5h9.8V161h-6.2c0.3-0.5,1-1.2,2.1-1.9
		c1.4-0.9,2.3-1.6,2.7-2.1c0.9-1,1.3-2.1,1.3-3.3c0-1.4-0.5-2.5-1.4-3.3s-2.1-1.2-3.5-1.2c-3.1,0-4.7,1.7-4.7,5h2.7
		c0-1.8,0.7-2.7,2.1-2.7c1.3,0,2,0.7,2,2.1C153.4,154.7,152.8,155.6,151.4,156.5L151.4,156.5z M133.9,158h3c1.5,0,2.3,0.6,2.4,1.9
		c0.1,1.2,0.2,2.5,0.3,3.8h3.3v-0.4c-0.5-0.2-0.7-0.7-0.7-1.5c0-0.2,0-0.4,0.1-0.8v-0.7c0-1.7-0.6-2.9-1.8-3.5
		c1.4-0.5,2.2-1.6,2.2-3.4c0-1.3-0.4-2.3-1.3-3c-0.8-0.7-1.9-1-3.2-1h-7.3v14.3h3V158z M133.9,151.8h3.7c1.4,0,2.1,0.6,2.1,1.9
		c0,1.3-0.8,1.9-2.3,1.9h-3.5C133.9,155.6,133.9,151.8,133.9,151.8z"/>
	<path class="st0" d="M0.2,181.6c0,0,32.7-3.2,50.6-3.2s48.3,2.4,48.3,2.4s-3.1-44.7-4.8-52c-1.7-7.3-7.7-21.3-16.9-27.9
		s-12-10.1-22.8-10.1S29.1,97.2,20,112.2S0.2,181.6,0.2,181.6z"/>
	<path class="st1" d="M98.5,174c0,0-26.1-4.4-49-4.4c-22.8,0-47.9,4.4-47.9,4.4c-1,4.7-1.6,7.6-1.6,7.6s32.7-3.2,50.6-3.2
		s48.4,2.4,48.4,2.4S98.9,178.1,98.5,174z"/>
	<path class="st2" d="M64.7,156.5c-2.1,1.7-3.2,2.6-3.2,2.6c-1.2,1.2-1.9,2.7-2,4.5h9.7V161h-6.2c0.3-0.5,1-1.2,2.1-1.9
		c1.4-0.9,2.3-1.6,2.7-2.1c0.9-1,1.3-2.1,1.3-3.3c0-1.4-0.5-2.5-1.4-3.3s-2.1-1.2-3.5-1.2c-3.1,0-4.7,1.7-4.7,5h2.7
		c0-1.8,0.7-2.7,2.1-2.7c1.3,0,2,0.7,2,2.1C66.2,154.7,65.9,155.6,64.7,156.5z M56.1,161H49v-11.7h-3v14.3h10.1V161z"/>
</g>
<g>
	<path class="st3" d="M199.9,90.8c0,0-32.7-3.2-50.6-3.2S100.9,90,100.9,90s3.1-44.7,4.8-52c1.7-7.3,7.7-21.3,16.9-27.9
		S134.6,0,145.4,0s25.4,6.4,34.6,21.4S199.9,90.8,199.9,90.8L199.9,90.8z"/>
	<path class="st4" d="M101.4,83.2c0,0,26.1-4.4,49-4.4c22.8,0,47.9,4.4,47.9,4.4c1,4.7,1.6,7.6,1.6,7.6s-32.7-3.2-50.6-3.2
		S100.9,90,100.9,90S101.1,87.3,101.4,83.2z"/>
	<path class="st5" d="M151.4,65.7c-1.1,0.9-2.1,1.7-3.2,2.6c-1.2,1.2-1.9,2.7-2,4.5h9.8v-2.6h-6.2c0.3-0.5,1-1.2,2.1-1.9
		c1.4-0.9,2.3-1.6,2.7-2.1c0.9-1,1.3-2.1,1.3-3.3c0-1.4-0.5-2.5-1.4-3.3s-2.1-1.2-3.5-1.2c-3.1,0-4.7,1.7-4.7,5h2.7
		c0-1.8,0.7-2.7,2.1-2.7c1.3,0,2,0.7,2,2.1C153.3,63.9,152.7,64.8,151.4,65.7L151.4,65.7z M133.9,67.2h3c1.5,0,2.3,0.6,2.4,1.9
		c0.1,1.2,0.2,2.5,0.3,3.8h3.3v-0.4c-0.5-0.2-0.7-0.7-0.7-1.5c0-0.2,0-0.4,0.1-0.8v-0.7c0-1.7-0.6-2.9-1.8-3.5
		c1.4-0.5,2.2-1.6,2.2-3.4c0-1.3-0.4-2.3-1.3-3c-0.8-0.7-1.9-1-3.2-1h-7.3v14.3h3V67.2z M133.9,61h3.7c1.4,0,2.1,0.6,2.1,1.9
		s-0.8,1.9-2.3,1.9h-3.5V61z"/>
	<path class="st3" d="M0.1,90.8c0,0,32.7-3.2,50.6-3.2C68.6,87.6,99,90,99,90s-3.1-44.7-4.8-52c-1.7-7.3-7.7-21.3-16.9-27.9
		S65.3,0,54.5,0S29.1,6.4,20,21.4S0.1,90.8,0.1,90.8z"/>
	<path class="st4" d="M98.4,83.2c0,0-26.1-4.4-49-4.4c-22.8,0-47.9,4.4-47.9,4.4c-1,4.7-1.6,7.6-1.6,7.6s32.7-3.2,50.6-3.2
		S98.9,90,98.9,90S98.8,87.3,98.4,83.2z"/>
	<path class="st5" d="M64.6,65.7c-2.1,1.7-3.2,2.6-3.2,2.6c-1.2,1.2-1.9,2.7-2,4.5h9.7v-2.6h-6.2c0.3-0.5,1-1.2,2.1-1.9
		c1.4-0.9,2.3-1.6,2.7-2.1c0.9-1,1.3-2.1,1.3-3.3c0-1.4-0.5-2.5-1.4-3.3s-2.1-1.2-3.5-1.2c-3.1,0-4.7,1.7-4.7,5h2.7
		c0-1.8,0.7-2.7,2.1-2.7c1.3,0,2,0.7,2,2.1C66.2,63.9,65.8,64.8,64.6,65.7z M56.1,70.2H49V58.5h-3v14.3h10.1V70.2z"/>
</g>
</svg>
