<?xml version="1.0" encoding="utf-8"?>
<!-- Generator: Adobe Illustrator 25.0.1, SVG Export Plug-In . SVG Version: 6.00 Build 0)  -->
<svg version="1.1" id="Layer_1" xmlns="http://www.w3.org/2000/svg" xmlns:xlink="http://www.w3.org/1999/xlink" x="0px" y="0px"
	 viewBox="0 0 42.3 84.6" style="enable-background:new 0 0 42.3 84.6;" xml:space="preserve">
<style type="text/css">
	.st0{fill:#E6E6E6;}
	.st1{fill:#F0F0F0;}
	.st2{fill:#0D0D0D;}
	.st3{fill:#050505;}
	.st4{fill:#0D0E13;}
	.st5{fill:#F2F2F2;}
</style>
<circle class="st0" cx="21.3" cy="63.3" r="20.2"/>
<path class="st1" d="M21.3,84.5C9.6,84.5,0.1,75,0.1,63.3c0-11.7,9.5-21.2,21.2-21.2c11.7,0,21.2,9.5,21.2,21.2
	C42.5,75,33,84.5,21.3,84.5z M21.3,44.1c-10.6,0-19.2,8.6-19.2,19.2s8.6,19.2,19.2,19.2s19.2-8.6,19.2-19.2S31.9,44.1,21.3,44.1z"/>
<g>
	<path class="st2" d="M22.4,69.9V57.1c0-0.5,0.1-0.8,0.3-1c0.1-0.2,0.4-0.3,0.7-0.2c0.6,0.2,0.9,0.7,0.9,1.7v6.9
		c0.8,0.4,1.5,0.5,2.1,0.5c0.6,0,1.2-0.2,1.6-0.5c1-0.7,1.5-1.9,1.5-3.7c0-1.9-0.4-3.4-1.2-4.3c-0.8-1-2.1-1.9-4.1-2.6
		c-1.3-0.4-2.5-0.8-3.6-1.1c-1.1-0.3-2-0.5-2.9-0.7v20.6l4.7,1.5C22.4,74.2,22.4,69.9,22.4,69.9z M17.4,68.9l-1.7,0.6l-0.9,0.4
		l-1.6,0.3L11.7,70c-0.3-0.2-0.4-0.4-0.2-0.6c0.1-0.1,0.2-0.1,0.3-0.2c0.1-0.1,0.3-0.1,0.4-0.2l1.1-0.4l4.1-1.5v-2.7l-1.7,0.5
		l-5.5,2l-1,0.4C7.7,67.9,7,68.5,7,69.1c0.1,0.8,1,1.5,2.7,1.9c0.7,0.2,1.4,0.3,2.1,0.4c0.7,0.1,1.4,0.1,2.2,0.1
		c1,0,2.1-0.1,3.3-0.3L17.4,68.9C17.3,68.9,17.4,68.9,17.4,68.9z"/>
	<path class="st2" d="M33.2,66.6c-0.9-0.3-1.7-0.5-2.5-0.6c-0.8-0.1-1.7-0.2-2.5-0.1c-0.9,0-1.9,0.2-2.8,0.3
		c-0.8,0.2-1.7,0.4-2.6,0.8v2.8l3.9-1.4l1.6-0.5l1.1-0.3h1.4c0.3,0.1,0.6,0.2,0.7,0.4c0,0.2-0.2,0.4-0.8,0.6l-1.4,0.5l-6.5,2.4v2.7
		l3.5-1.3l6.4-2.3l0.7-0.4c1.5-0.5,2.2-1.2,2.2-1.9C35.6,67.7,34.8,67.1,33.2,66.6z"/>
</g>
<circle class="st3" cx="21.1" cy="21.1" r="20.2"/>
<path class="st4" d="M21.1,42.3C9.5,42.3,0,32.8,0,21.2C0,9.4,9.5-0.1,21.1-0.1c11.7,0,21.2,9.5,21.2,21.2
	C42.3,32.9,32.8,42.3,21.1,42.3z M21.1,1.9C10.5,1.9,2,10.6,2,21.2s8.6,19.2,19.2,19.2s19.2-8.6,19.2-19.2S31.8,2,21.1,1.9z"/>
<g>
	<path class="st5" d="M22.2,27.8V14.9c0-0.5,0.1-0.8,0.3-1c0.1-0.2,0.4-0.3,0.7-0.2c0.6,0.2,0.9,0.7,0.9,1.7v6.9
		c0.8,0.4,1.5,0.5,2.1,0.5c0.6,0,1.2-0.2,1.6-0.5c1-0.7,1.5-1.9,1.5-3.7c0-1.9-0.4-3.4-1.2-4.3c-0.8-1-2.1-1.9-4.1-2.6
		c-1.3-0.4-2.5-0.8-3.6-1.1c-1.1-0.3-2-0.5-2.9-0.7v20.6l4.7,1.5C22.2,32,22.2,27.8,22.2,27.8z M17.2,26.8l-1.7,0.6l-0.9,0.4
		l-1.6,0.3l-1.5-0.2c-0.3-0.2-0.4-0.4-0.2-0.6c0.1-0.1,0.2-0.1,0.3-0.2c0.1-0.1,0.3-0.1,0.4-0.2l1.1-0.4l4.1-1.5v-2.7l-1.7,0.5
		l-5.5,2l-1,0.4c-1.5,0.6-2.2,1.2-2.2,1.8c0.1,0.8,1,1.5,2.7,1.9c0.7,0.2,1.4,0.3,2.1,0.4c0.7,0.1,1.4,0.1,2.2,0.1
		c1,0,2.1-0.1,3.3-0.3L17.2,26.8C17.2,26.8,17.2,26.8,17.2,26.8z"/>
	<path class="st5" d="M33,24.5c-0.9-0.3-1.7-0.5-2.5-0.6c-0.8-0.1-1.7-0.2-2.5-0.1c-0.9,0-1.9,0.2-2.8,0.3c-0.8,0.2-1.7,0.4-2.6,0.8
		v2.8l3.9-1.4l1.6-0.5l1.1-0.3h1.4c0.3,0.1,0.6,0.2,0.7,0.4c0,0.2-0.2,0.4-0.8,0.6L29.1,27l-6.5,2.4v2.7l3.5-1.3l6.4-2.3l0.7-0.4
		c1.5-0.5,2.2-1.2,2.2-1.9C35.5,25.6,34.7,24.9,33,24.5z"/>
</g>
</svg>
