<?xml version="1.0" encoding="utf-8"?>
<!-- Generator: Adobe Illustrator 25.0.1, SVG Export Plug-In . SVG Version: 6.00 Build 0)  -->
<svg version="1.1" id="Layer_1" xmlns="http://www.w3.org/2000/svg" xmlns:xlink="http://www.w3.org/1999/xlink" x="0px" y="0px"
	 viewBox="0 0 28.4 93.4" style="enable-background:new 0 0 28.4 93.4;" xml:space="preserve">
<style type="text/css">
	.st0{fill:#FFFFFF;}
	.st1{fill:#EFEEE5;}
	.st2{fill:#10111A;}
</style>
<path class="st0" d="M14.2,48.4c6.9,0,12.5,5.6,12.5,12.5v18.3c0,6.9-5.6,12.5-12.5,12.5S1.7,86.1,1.7,79.2V60.9
	C1.7,54,7.3,48.4,14.2,48.4 M14.2,46.7C6.4,46.7,0,53.1,0,60.9v18.3C0,87,6.4,93.4,14.2,93.4S28.4,87,28.4,79.2V60.9
	C28.4,53.1,22,46.7,14.2,46.7z"/>
<path class="st1" d="M14.2,48.4C7.3,48.4,1.7,54,1.7,60.9v18.3c0,6.9,5.6,12.5,12.5,12.5s12.5-5.6,12.5-12.5V60.9
	C26.7,54,21.1,48.4,14.2,48.4z"/>
<path d="M14.2,1.7c6.9,0,12.5,5.6,12.5,12.5v18.3c0,6.9-5.6,12.5-12.5,12.5S1.7,39.4,1.7,32.5V14.2C1.7,7.3,7.3,1.7,14.2,1.7
	 M14.2,0C6.4,0,0,6.4,0,14.2v18.3c0,7.8,6.4,14.2,14.2,14.2s14.2-6.4,14.2-14.2V14.2C28.4,6.4,22,0,14.2,0z"/>
<path class="st2" d="M14.2,1.7C7.3,1.7,1.7,7.3,1.7,14.2v18.3C1.7,39.4,7.3,45,14.2,45s12.5-5.6,12.5-12.5V14.2
	C26.7,7.3,21.1,1.7,14.2,1.7z"/>
</svg>
